<?xml version="1.0" encoding="UTF-8" standalone="no"?>
<!-- Generator: Adobe Illustrator 16.0.0, SVG Export Plug-In . SVG Version: 6.00 Build 0)  -->

<svg
   xmlns:dc="http://purl.org/dc/elements/1.1/"
   xmlns:cc="http://creativecommons.org/ns#"
   xmlns:rdf="http://www.w3.org/1999/02/22-rdf-syntax-ns#"
   xmlns:svg="http://www.w3.org/2000/svg"
   xmlns="http://www.w3.org/2000/svg"
   xmlns:sodipodi="http://sodipodi.sourceforge.net/DTD/sodipodi-0.dtd"
   xmlns:inkscape="http://www.inkscape.org/namespaces/inkscape"
   version="1.1"
   id="Layer_1"
   x="0px"
   y="0px"
   width="257.07465"
   height="99.453613"
   viewBox="0 0 257.07464 99.45361"
   enable-background="new 0 0 575.333 425.2"
   xml:space="preserve"
   inkscape:version="0.48.4 r9939"
   sodipodi:docname="logo_nobg.svg"><metadata
     id="metadata33"><rdf:RDF><cc:Work
         rdf:about=""><dc:format>image/svg+xml</dc:format><dc:type
           rdf:resource="http://purl.org/dc/dcmitype/StillImage" /><dc:title /></cc:Work></rdf:RDF></metadata><defs
     id="defs31" /><sodipodi:namedview
     pagecolor="#ffffff"
     bordercolor="#666666"
     borderopacity="1"
     objecttolerance="10"
     gridtolerance="10"
     guidetolerance="10"
     inkscape:pageopacity="0"
     inkscape:pageshadow="2"
     inkscape:window-width="1366"
     inkscape:window-height="744"
     id="namedview29"
     showgrid="false"
     inkscape:zoom="1.4355177"
     inkscape:cx="67.850338"
     inkscape:cy="30.591396"
     inkscape:window-x="0"
     inkscape:window-y="24"
     inkscape:window-maximized="1"
     inkscape:current-layer="Layer_1"
     fit-margin-top="0"
     fit-margin-left="0"
     fit-margin-right="0"
     fit-margin-bottom="0" /><g
     id="g3054"
     transform="translate(-177.00825,-151.09478)"><path
       style="fill:#ffffff"
       inkscape:connector-curvature="0"
       id="path9"
       d="m 180.309,151.153 c 1.577,0 3.178,0 4.754,0 0.024,8.872 0.024,17.722 0,26.594 -1.576,0 -3.177,0 -4.754,0 0,-8.872 0,-17.722 0,-26.594 l 0,0 z" /><path
       style="fill:#ffffff"
       inkscape:connector-curvature="0"
       id="path11"
       d="m 190.899,151.105 c 5.718,0 11.414,-0.023 17.133,0 -0.022,1.483 0,2.965 0,4.472 -4.141,0 -8.26,-0.023 -12.379,0 0,2.236 0.023,4.495 0,6.73 3.507,0.047 7.037,0.024 10.567,0 0.071,1.46 0.023,2.918 0.023,4.378 -3.53,0 -7.06,-0.025 -10.59,0 0.023,2.211 0.023,4.423 0,6.636 4.119,0.046 8.238,0 12.379,0 0,1.483 -0.022,2.942 0,4.424 -5.719,0.024 -11.415,0 -17.133,0 0,-8.87 0,-17.767 0,-26.64 l 0,0 z" /><path
       style="fill:#ffffff"
       inkscape:connector-curvature="0"
       id="path13"
       d="m 212.316,151.105 c 5.719,0 11.414,-0.023 17.133,0 -0.023,1.483 0,2.965 0,4.472 -4.142,0 -8.26,-0.023 -12.379,0 0,2.236 0.023,4.495 0,6.73 3.53,0.047 7.037,0.024 10.567,0 0.07,1.46 0.023,2.918 0.023,4.378 -3.53,0 -7.061,-0.025 -10.59,0 0.023,2.211 0.023,4.423 0,6.636 4.119,0.024 8.237,0 12.379,0 0,1.483 -0.023,2.942 0,4.424 -5.719,0.024 -11.414,0 -17.133,0 0,-8.87 0,-17.767 0,-26.64 l 0,0 z" /><path
       style="fill:#ffffff"
       inkscape:connector-curvature="0"
       id="path15"
       d="m 233.732,151.105 c 5.718,0 11.414,-0.023 17.132,0 -0.022,1.483 0,2.965 0,4.472 -4.142,0 -8.261,-0.023 -12.378,0 0,2.236 0.023,4.495 0,6.73 3.506,0.047 7.036,0.024 10.567,0 0.07,1.46 0.023,2.918 0.023,4.378 -3.531,0 -7.06,-0.025 -10.59,0 0.023,2.211 0.023,4.423 0,6.636 4.118,0.024 8.237,0 12.378,0 0,1.483 -0.022,2.942 0,4.424 -5.718,0.024 -11.415,0 -17.132,0 0,-8.87 0,-17.767 0,-26.64 l 0,0 z" /><path
       style="fill:#ffffff"
       inkscape:connector-curvature="0"
       id="path17"
       d="m 393.272,188.313 c 4.612,-2.683 10.024,-3.789 15.321,-3.694 5.883,0.023 11.955,1.529 16.708,5.106 3.366,2.519 5.837,6.261 6.591,10.403 0.329,1.623 0.306,3.27 0.399,4.918 -3.507,0 -7.013,0 -10.496,0 -0.118,-2.236 -0.471,-4.683 -2.189,-6.307 -2.94,-2.896 -7.271,-3.601 -11.25,-3.742 -3.388,0.118 -6.87,0.776 -9.766,2.636 -1.507,0.988 -2.823,2.424 -3.248,4.236 -0.636,2.542 -0.211,5.672 2.048,7.319 2.376,1.67 5.343,2.046 8.144,2.47 5.082,0.683 10.236,1.06 15.179,2.495 3.295,0.94 6.543,2.401 8.989,4.849 2.448,2.353 3.813,5.648 4.214,8.989 0.4,3.578 0.141,7.342 -1.437,10.614 -1.364,2.966 -3.646,5.46 -6.377,7.226 -3.366,2.188 -7.226,3.483 -11.155,4.142 -6.754,1.129 -13.91,0.684 -20.216,-2.117 -3.601,-1.625 -6.92,-4.073 -9.084,-7.414 -1.437,-2.213 -2.378,-4.778 -2.684,-7.391 -0.165,-1.271 -0.142,-2.541 -0.212,-3.788 3.624,-0.047 7.272,-0.071 10.896,0 -0.07,2.282 0.306,4.731 1.929,6.448 2.778,2.989 6.943,4.119 10.874,4.542 3.482,0.306 7.037,-0.165 10.332,-1.342 2.354,-0.918 4.707,-2.493 5.695,-4.917 0.917,-2.237 0.917,-4.896 -0.188,-7.084 -1.178,-2.189 -3.671,-3.155 -5.954,-3.696 -4.26,-0.987 -8.614,-1.224 -12.92,-1.883 -4.377,-0.682 -8.803,-1.765 -12.567,-4.212 -3.201,-2.025 -5.602,-5.319 -6.402,-9.061 -0.799,-3.931 -0.494,-8.144 1.271,-11.792 1.577,-3.364 4.355,-6.117 7.555,-7.953 l 0,0 z" /><path
       style="fill:#ffffff"
       inkscape:connector-curvature="0"
       id="path19"
       d="m 368.019,186.384 c 4.001,-1.647 8.426,-1.13 12.544,-0.33 0.047,2.895 0.024,5.789 0.024,8.685 -2.283,-0.236 -4.684,-0.706 -6.896,0.118 -1.176,0.47 -2.095,1.388 -2.73,2.471 -1.271,2.118 -1.741,4.565 -2.494,6.895 -1.459,4.637 -3.247,9.367 -6.543,13.038 5.625,7.979 11.273,15.933 16.898,23.911 1.106,1.624 2.329,3.178 3.389,4.848 0.07,1.2 0,2.378 0.023,3.554 -3.742,-0.021 -7.508,0.096 -11.225,-0.045 -6.262,-9.086 -12.545,-18.193 -18.758,-27.325 -3.46,0.519 -6.942,0.753 -10.45,0.8 0,8.85 0.024,17.722 0,26.57 -3.671,0 -7.342,0.047 -11.014,-0.021 0.023,-21.276 0.023,-42.552 0,-63.827 3.672,-0.071 7.343,-0.023 11.014,-0.023 0.024,9.107 0.024,18.215 0,27.347 2.33,0.023 4.66,-0.046 6.967,-0.33 1.719,-0.259 3.577,-0.635 4.824,-1.954 1.978,-2.094 3.06,-4.824 4.024,-7.484 1.153,-3.153 1.719,-6.496 3.201,-9.531 1.46,-3.178 3.884,-6.049 7.202,-7.367 l 0,0 z" /><path
       transform="translate(0,-3.2166005e-6)"
       id="path21"
       d="m 247.84375,185.4375 c -0.329,0.047 -0.8195,-0.1115 -0.9375,0.3125 -9.343,19.815 -18.68925,39.65375 -28.03125,59.46875 -0.801,1.319 -0.3195,2.90775 -0.4375,4.34375 3.53,0 7.0565,0.023 10.5625,0 l 0.15625,-0.0937 c 2.331,-4.896 4.63875,-9.7915 6.96875,-14.6875 9.155,-0.023 18.3075,-0.008 27.4375,-0.0312 1.554,3.177 3.0565,6.3845 4.5625,9.5625 0.894,1.741 1.60575,3.557 2.59375,5.25 3.53,0.023 7.0325,0 10.5625,0 -0.095,-1.199 0.1885,-2.472 -0.1875,-3.625 -9.367,-20.051 -18.72775,-40.10625 -28.09375,-60.15625 -0.071,-0.095 -0.17275,-0.2415 -0.21875,-0.3125 -1.648,-0.046 -3.3135,-0.008 -4.9375,-0.0312 z m 2.03125,18.09375 c 3.201,7.06 6.40125,14.09625 9.53125,21.15625 l -19.09375,0 c 2.941,-6.59 5.933,-13.161 8.875,-19.75 0.212,-0.494 0.4515,-0.93525 0.6875,-1.40625 z"
       style="fill:#ffffff"
       inkscape:connector-curvature="0" /><path
       style="fill:#ffffff"
       inkscape:connector-curvature="0"
       id="path23"
       d="m 177.014,185.701 c 15.627,-0.023 31.23,0 46.833,-0.023 0.353,0.023 0.729,0.023 1.082,0.047 -0.047,3.413 -0.023,6.849 -0.023,10.262 -6.166,0 -12.355,-0.024 -18.521,0 -0.023,17.862 -0.023,35.725 0,53.587 -3.624,0.023 -7.225,0 -10.826,0 0,-17.838 -0.023,-35.701 0,-53.564 -6.166,-0.047 -12.355,-0.023 -18.522,0 -0.046,-3.436 -0.023,-6.872 -0.023,-10.309 l 0,0 z" /><path
       style="fill:#ffffff"
       inkscape:connector-curvature="0"
       id="path25"
       d="m 286.167,185.701 c 3.67,0 7.366,-0.023 11.06,0 -0.022,17.839 -0.022,35.679 0,53.517 9.414,0.024 18.852,0.024 28.29,0 0.022,3.46 0,6.92 0,10.355 -13.109,0.023 -26.241,0.023 -39.35,0 -0.024,-21.298 -0.024,-42.573 0,-63.872 l 0,0 z" /></g></svg>