<?xml version="1.0" encoding="utf-8"?>
<!-- Generator: Adobe Illustrator 16.0.0, SVG Export Plug-In . SVG Version: 6.00 Build 0)  -->
<!DOCTYPE svg PUBLIC "-//W3C//DTD SVG 1.1//EN" "http://www.w3.org/Graphics/SVG/1.1/DTD/svg11.dtd">
<svg version="1.1" id="Layer_1" xmlns="http://www.w3.org/2000/svg" xmlns:xlink="http://www.w3.org/1999/xlink" x="0px" y="0px"
	 width="575.333px" height="425.2px" viewBox="0 0 575.333 425.2" enable-background="new 0 0 575.333 425.2" xml:space="preserve">
<g>
	<path fill="#00AEEF" d="M518.387,192.707c4.721,38.52-3.649,78.654-24.572,111.486c-17.49,27.898-43.671,50.322-73.93,63.412
		c-23.606,10.408-49.68,15.021-75.54,13.842c-23.928-1.18-47.64-5.471-70.925-11.158c-40.022-9.98-79.081-24.145-115.777-42.918
		c-26.825-14.057-52.9-30.688-73.823-52.793c-12.124-12.984-22.424-28.327-26.502-45.925c-3.433-14.917-1.396-30.903,5.042-44.745
		c8.263-18.348,22.105-33.585,37.234-46.568c24.786-21.031,53.327-37.019,82.728-50.432c39.056-17.49,80.153-30.795,122.322-38.521
		c20.817-3.648,42.169-6.117,63.308-4.078c31.653,2.79,62.342,15.129,87.234,34.873
		C490.274,106.651,513.343,148.498,518.387,192.707L518.387,192.707z"/>
	<g>
		<path fill="#FFFFFF" d="M180.309,151.153c1.577,0,3.178,0,4.754,0c0.024,8.872,0.024,17.722,0,26.594c-1.576,0-3.177,0-4.754,0
			C180.309,168.875,180.309,160.025,180.309,151.153L180.309,151.153z"/>
		<path fill="#FFFFFF" d="M190.899,151.105c5.718,0,11.414-0.023,17.133,0c-0.022,1.483,0,2.965,0,4.472
			c-4.141,0-8.26-0.023-12.379,0c0,2.236,0.023,4.495,0,6.73c3.507,0.047,7.037,0.024,10.567,0c0.071,1.46,0.023,2.918,0.023,4.378
			c-3.53,0-7.06-0.025-10.59,0c0.023,2.211,0.023,4.423,0,6.636c4.119,0.046,8.238,0,12.379,0c0,1.483-0.022,2.942,0,4.424
			c-5.719,0.024-11.415,0-17.133,0C190.899,168.875,190.899,159.978,190.899,151.105L190.899,151.105z"/>
		<path fill="#FFFFFF" d="M212.316,151.105c5.719,0,11.414-0.023,17.133,0c-0.023,1.483,0,2.965,0,4.472
			c-4.142,0-8.26-0.023-12.379,0c0,2.236,0.023,4.495,0,6.73c3.53,0.047,7.037,0.024,10.567,0c0.07,1.46,0.023,2.918,0.023,4.378
			c-3.53,0-7.061-0.025-10.59,0c0.023,2.211,0.023,4.423,0,6.636c4.119,0.024,8.237,0,12.379,0c0,1.483-0.023,2.942,0,4.424
			c-5.719,0.024-11.414,0-17.133,0C212.316,168.875,212.316,159.978,212.316,151.105L212.316,151.105z"/>
		<path fill="#FFFFFF" d="M233.732,151.105c5.718,0,11.414-0.023,17.132,0c-0.022,1.483,0,2.965,0,4.472
			c-4.142,0-8.261-0.023-12.378,0c0,2.236,0.023,4.495,0,6.73c3.506,0.047,7.036,0.024,10.567,0c0.07,1.46,0.023,2.918,0.023,4.378
			c-3.531,0-7.06-0.025-10.59,0c0.023,2.211,0.023,4.423,0,6.636c4.118,0.024,8.237,0,12.378,0c0,1.483-0.022,2.942,0,4.424
			c-5.718,0.024-11.415,0-17.132,0C233.732,168.875,233.732,159.978,233.732,151.105L233.732,151.105z"/>
		<path fill="#FFFFFF" d="M393.272,188.313c4.612-2.683,10.024-3.789,15.321-3.694c5.883,0.023,11.955,1.529,16.708,5.106
			c3.366,2.519,5.837,6.261,6.591,10.403c0.329,1.623,0.306,3.27,0.399,4.918c-3.507,0-7.013,0-10.496,0
			c-0.118-2.236-0.471-4.683-2.189-6.307c-2.94-2.896-7.271-3.601-11.25-3.742c-3.388,0.118-6.87,0.776-9.766,2.636
			c-1.507,0.988-2.823,2.424-3.248,4.236c-0.636,2.542-0.211,5.672,2.048,7.319c2.376,1.67,5.343,2.046,8.144,2.47
			c5.082,0.683,10.236,1.06,15.179,2.495c3.295,0.94,6.543,2.401,8.989,4.849c2.448,2.353,3.813,5.648,4.214,8.989
			c0.4,3.578,0.141,7.342-1.437,10.614c-1.364,2.966-3.646,5.46-6.377,7.226c-3.366,2.188-7.226,3.483-11.155,4.142
			c-6.754,1.129-13.91,0.684-20.216-2.117c-3.601-1.625-6.92-4.073-9.084-7.414c-1.437-2.213-2.378-4.778-2.684-7.391
			c-0.165-1.271-0.142-2.541-0.212-3.788c3.624-0.047,7.272-0.071,10.896,0c-0.07,2.282,0.306,4.731,1.929,6.448
			c2.778,2.989,6.943,4.119,10.874,4.542c3.482,0.306,7.037-0.165,10.332-1.342c2.354-0.918,4.707-2.493,5.695-4.917
			c0.917-2.237,0.917-4.896-0.188-7.084c-1.178-2.189-3.671-3.155-5.954-3.696c-4.26-0.987-8.614-1.224-12.92-1.883
			c-4.377-0.682-8.803-1.765-12.567-4.212c-3.201-2.025-5.602-5.319-6.402-9.061c-0.799-3.931-0.494-8.144,1.271-11.792
			C387.294,192.902,390.072,190.149,393.272,188.313L393.272,188.313z"/>
		<path fill="#FFFFFF" d="M368.019,186.384c4.001-1.647,8.426-1.13,12.544-0.33c0.047,2.895,0.024,5.789,0.024,8.685
			c-2.283-0.236-4.684-0.706-6.896,0.118c-1.176,0.47-2.095,1.388-2.73,2.471c-1.271,2.118-1.741,4.565-2.494,6.895
			c-1.459,4.637-3.247,9.367-6.543,13.038c5.625,7.979,11.273,15.933,16.898,23.911c1.106,1.624,2.329,3.178,3.389,4.848
			c0.07,1.2,0,2.378,0.023,3.554c-3.742-0.021-7.508,0.096-11.225-0.045c-6.262-9.086-12.545-18.193-18.758-27.325
			c-3.46,0.519-6.942,0.753-10.45,0.8c0,8.85,0.024,17.722,0,26.57c-3.671,0-7.342,0.047-11.014-0.021
			c0.023-21.276,0.023-42.552,0-63.827c3.672-0.071,7.343-0.023,11.014-0.023c0.024,9.107,0.024,18.215,0,27.347
			c2.33,0.023,4.66-0.046,6.967-0.33c1.719-0.259,3.577-0.635,4.824-1.954c1.978-2.094,3.06-4.824,4.024-7.484
			c1.153-3.153,1.719-6.496,3.201-9.531C362.277,190.573,364.701,187.702,368.019,186.384L368.019,186.384z"/>
		<path fill="#FFFFFF" d="M246.911,185.749c0.118-0.424,0.612-0.259,0.941-0.306c1.624,0.023,3.271-0.023,4.919,0.023
			c0.046,0.071,0.165,0.212,0.236,0.307c9.366,20.05,18.733,40.102,28.1,60.153c0.376,1.153,0.07,2.448,0.165,3.647
			c-3.53,0-7.037,0.023-10.567,0c-0.988-1.693-1.695-3.53-2.589-5.271c-1.506-3.178-2.989-6.379-4.543-9.556
			c-9.13,0.023-18.285,0-27.44,0.023c-2.33,4.896-4.636,9.79-6.967,14.686l-0.164,0.117c-3.506,0.023-7.037,0-10.567,0
			c0.118-1.436-0.353-3.035,0.448-4.354C228.225,225.403,237.568,205.564,246.911,185.749L246.911,185.749z"/>
		<path fill="#FFFFFF" d="M177.014,185.701c15.627-0.023,31.23,0,46.833-0.023c0.353,0.023,0.729,0.023,1.082,0.047
			c-0.047,3.413-0.023,6.849-0.023,10.262c-6.166,0-12.355-0.024-18.521,0c-0.023,17.862-0.023,35.725,0,53.587
			c-3.624,0.023-7.225,0-10.826,0c0-17.838-0.023-35.701,0-53.564c-6.166-0.047-12.355-0.023-18.522,0
			C176.991,192.574,177.014,189.138,177.014,185.701L177.014,185.701z"/>
		<path fill="#FFFFFF" d="M286.167,185.701c3.67,0,7.366-0.023,11.06,0c-0.022,17.839-0.022,35.679,0,53.517
			c9.414,0.024,18.852,0.024,28.29,0c0.022,3.46,0,6.92,0,10.355c-13.109,0.023-26.241,0.023-39.35,0
			C286.143,228.275,286.143,207,286.167,185.701L286.167,185.701z"/>
		<path fill="#00AEEF" d="M249.194,204.953c0.212-0.494,0.447-0.965,0.683-1.436c3.201,7.06,6.401,14.121,9.531,21.181
			c-6.354,0-12.732,0-19.086,0C243.263,218.108,246.252,211.542,249.194,204.953L249.194,204.953z"/>
	</g>
</g>
</svg>
