<?xml version="1.0" encoding="utf-8"?>
<!-- Generator: Adobe Illustrator 22.1.0, SVG Export Plug-In . SVG Version: 6.00 Build 0)  -->
<svg version="1.1" id="Layer_1" xmlns="http://www.w3.org/2000/svg" xmlns:xlink="http://www.w3.org/1999/xlink" x="0px" y="0px"
	 viewBox="0 0 1386 445" style="enable-background:new 0 0 1386 445;" xml:space="preserve">
<style type="text/css">
	.st0{fill:#FFFFFF;}
</style>
<g>
	<g>
		<path class="st0" d="M203.5,4.5h3.2c4.1,1.3,8.2,3.5,10.4,7.4C226,25,235.7,37.7,245.8,50c9.9,12.1,19.8,24.2,30.7,35.4
			c12.6,13,24.8,26.5,38,38.9c23.9,22.7,49.4,43.7,76.3,62.7c3.6,2.6,7.2,5.2,11.1,7.2c6.9,4.1,10.5,14.9,4.2,21.1
			c-3.7,3.9-8.9,5.9-13.3,8.8c-68.2,49.1-128.6,109-177.3,177.5c-2.2,2.7-4.6,6-8.3,6.5c-3.4,0.5-6.9-0.3-10.1-1.5
			c-3.3-1.3-4.6-4.8-6.3-7.6c-11.2-17.5-24.7-33.2-37.4-49.6c-6.8-7.2-13.1-14.9-19.9-22.1C96.2,286.5,54.2,250,8.8,218.3
			c-4-2.4-7.4-6-8.4-10.7v-3.6c0.8-3.8,3.4-6.9,6.4-9.1c7.6-5.8,15.7-11,23.3-16.8c50.9-37.7,96.1-82.8,136-131.9
			c9.6-12.2,18.9-24.5,28.4-36.8C196.7,6.7,200.1,5.3,203.5,4.5z M198.9,57.1c-3.4,0.8-6.4,2.6-9.2,4.6
			c-14,10.2-27.9,20.7-40.6,32.4c-30.5,27.5-59.9,56.4-84.8,89.3c-4.5,6.1-9,12.6-10.9,20c-0.7,5.6,0.6,11.5,3.9,16.1
			c20.4,29.9,45.2,56.6,71.7,81.2c20.2,18,39.4,37.5,62.8,51.4c3.9,2.2,7.8,5,12.4,5.1c7.4,0.3,14.2-3.6,20.1-7.8
			c34.8-24.7,65.2-54.8,94.1-86c13.1-16,28.4-30.9,36.7-50.2c2.9-7.2-0.3-15.1-4.5-21.1c-22.9-32.8-49.9-62.6-79-89.9
			c-2.1-1.9-4.5-3.4-6.5-5.4c-11.3-10.8-23.6-20.5-35.9-30.1C220.8,60.2,209.9,54.6,198.9,57.1z"/>
	</g>
	<path class="st0" d="M462.3,57.8c28.2,0.1,56.5,0,84.7,0c0,102,0,204,0,306c-28.2,0-56.5,0-84.7,0
		C462.3,261.9,462.2,159.8,462.3,57.8z"/>
	<path class="st0" d="M591.4,57.9c77.8,0,155.5,0,233.3,0c0,19.8,0,39.6,0,59.3c-49.5,0-98.9,0-148.4,0c0,21,0,42,0,63
		c45.5,0,90.9,0,136.4,0c0,19.8,0,39.7,0,59.5c-45.5,0-90.9,0-136.4,0c0,21.5,0,43.1,0,64.6c49.5,0,98.9,0,148.4,0
		c0,19.8,0,39.7,0,59.5c-77.8,0-155.5,0-233.2,0C591.4,261.9,591.4,159.9,591.4,57.9z"/>
	<path class="st0" d="M871.9,57.9c77.7,0,155.4,0,233.1,0c0,19.8,0,39.6,0,59.4c-49.4,0-98.8,0-148.2,0c-0.1,21,0,42,0,63
		c45.5,0,90.9,0,136.4,0c0,19.8,0,39.7,0,59.5c-45.5,0-90.9,0-136.4,0c0,21.5,0,43.1,0,64.6c49.4,0,98.9-0.1,148.3,0.1
		c-0.1,19.8,0,39.6,0,59.5c-77.7,0-155.4,0-233.1,0C871.9,261.9,871.9,159.9,871.9,57.9z"/>
	<path class="st0" d="M1152.4,57.9c77.7,0,155.3,0,233,0c0.3,19.8,0.3,39.6,0,59.4c-49.4,0-98.8,0-148.1,0c0,21,0,42,0,63
		c45.5,0,90.9,0,136.4,0c0,19.8,0,39.7,0,59.5c-45.5,0-90.9,0-136.4,0c0,21.5,0,43.1,0,64.6c49.4,0,98.8,0,148.2,0
		c0.2,19.8,0.1,39.7,0.1,59.5c-77.7,0-155.4,0-233.1,0C1152.4,261.9,1152.4,159.9,1152.4,57.9z"/>
	<g>
		<path class="st0" d="M199.9,67.2c7-2.6,14.4,0.6,20.3,4.6c12.2,8.6,23.6,18.2,34.9,28c32.4,28.3,62.5,59.6,87.1,95
			c4.1,5.9,5.9,14.1,2.6,20.8c-8.3,14.4-20,26.4-30,39.5c-21,22.3-42.3,44.4-65.7,64.2c-4.6,3.8-9,7.7-14,11
			c-7.9,5.4-14.7,12.9-24,16c-6.2,2.1-13.1,0.5-18.2-3.4C152.5,313,115.8,278,83.5,239.4c-5.8-8.8-14.3-15.9-18.5-25.8
			c-2.3-5.1-1.9-11.1,0.7-15.9c3.6-6.8,9-12.4,13.4-18.6c33.2-40.6,71.1-77.6,114-107.9C195.2,69.7,197.4,68.1,199.9,67.2z
			 M181.6,162.5c5.1,0.3,10.1,0.1,15.2,0.4c-0.9,20.6-1.8,41.2-2.8,61.8c6.7,0.9,13.6,0.9,20.3-0.1c-0.9-18.4-1.5-36.8-2.3-55.2
			c-0.1-2.2-0.1-4.5,0-6.7c5.6-0.1,11.1-0.1,16.7-0.3c-8.4-22-16.3-44.1-24.2-66.2C197.1,118.4,189.3,140.4,181.6,162.5z
			 M133.4,184.5c-7.8,4.4-16.4,10.5-17.5,20.1c-1,5.8,3.2,10.7,7.3,14.1c8.5,6.6,18.9,9.9,29.1,12.9c32.1,8.8,66.4,8.5,98.7,0.6
			c9.4-2.4,18.8-5.6,26.5-11.7c4.6-3.9,8.7-10.2,6.4-16.4c-2.9-7.8-10.7-12-17.6-15.7c3-1.2,6.1-2,9.2-2.6
			c-13.3-2.4-26.4-5.9-39.5-9.4c2.4,5.7,4.3,11.7,6.3,17.6c4-1.1,7.9-2.4,12.1-2.6c5.1,1.8,10.4,4.1,14.2,8.1
			c3.1,3.3,4.2,8.8,1.4,12.6c-3.1,4.2-8,6.7-12.6,9c-25.4,9.1-53.3,10.8-79.7,5.7c-8-1.6-16-3.5-23.2-7.2c-4.5-2.3-8.8-6.6-8.9-11.9
			c0.8-2.1,2-3.9,3.4-5.7c7.5-9.2,19.8-11.5,30.6-14.4c-6.7-4.1-13.4-8.4-20.1-12.7C150,175.6,141.5,180.2,133.4,184.5z
			 M193.6,241.5c-1,21.1-1.4,42.3-3,63.4c9.1,0.8,18.3,1.4,27.4,0.2c-1.1-21.1-1.6-42.3-3.1-63.4C207.8,242,200.7,242.2,193.6,241.5
			z"/>
	</g>
	<g>
		<path class="st0" d="M269.5,364.6c6.1-2.1,13.7-0.1,17.2,5.5c3.4,5.5,2.9,13.5-1.8,18.2c-5.9,5.9-16.9,5.4-21.9-1.4
			C257.5,379.7,260.4,367.2,269.5,364.6z M270.7,368c-8.3,3.2-8.3,17,0,20.2c6.5,3,14.1-2.8,13.9-9.7
			C285.5,371.3,277.6,364.8,270.7,368z"/>
	</g>
	<g>
		<path class="st0" d="M268.9,370.4c3.4,0.2,6.9-0.6,10.1,0.7c3.4,1.9,2.4,7.6-1.5,8.2c1.3,2.1,2.5,4.3,3.8,6.4c-1,0-3.1,0-4.1,0
			c-1.6-2.1-2-5.9-4.9-6.6c0,2.2,0,4.4,0,6.6c-0.8,0-2.5,0-3.4,0C268.9,380.6,268.9,375.5,268.9,370.4z M272.3,373.1
			c0,1.2,0,2.4,0,3.6c1.7-0.3,4,0.5,5.1-1.1C278.1,372.4,274.1,373.2,272.3,373.1z"/>
	</g>
	<path class="st0" d="M538.6,391c2.5,0,5,0,7.5,0c0,2.2,0,4.3,0,6.5c-2.5,0-5,0-7.5,0C538.6,395.3,538.6,393.1,538.6,391z"/>
	<path class="st0" d="M663.6,391c2.5,0,5,0,7.5,0c0,2.2,0,4.3,0,6.5c-2.5,0-5,0-7.5,0C663.6,395.3,663.6,393.1,663.6,391z"/>
	<path class="st0" d="M776.2,392.4c3.6-2.9,8.5-1.9,12.7-1.2c-0.3,1.7-0.6,3.4-0.9,5.1c-2,0.1-5.2-1.2-6.2,1.2
		c-0.2,1.3-0.3,2.6-0.3,3.9c1.8,0,3.6,0,5.5,0c0,1.8,0,3.6,0,5.5c-1.8,0-3.6,0-5.4,0c0,7.5,0,15,0,22.5c-2.5,0-5,0-7.5,0
		c0-7.5,0-15,0-22.5c-1.3,0-2.7,0-4,0c0-1.8,0-3.7,0-5.5c1.3,0,2.6,0,4,0C774.2,398.4,773.6,394.6,776.2,392.4z"/>
	<path class="st0" d="M996.8,392.7c4.9-3,11.2-2.8,16.6-1.3c4.6,1.4,7.4,5.9,7.7,10.5c-2.6,0.2-5.2,0.4-7.9,0.5
		c-0.8-5.9-8.4-6.9-12.5-3.9c-1.6,1.2-1.1,4,0.7,4.7c5.5,2.9,12.5,2.5,17.4,6.8c5.3,4.9,3.9,14.8-2.6,18c-5.2,2.5-11.5,2.5-16.9,0.9
		c-5.2-1.6-8.1-6.9-8.7-12c2.5-0.2,5-0.4,7.6-0.5c0.8,2.5,2,5.4,4.8,6.3c3.5,1.1,8.3,1.1,10.5-2.2c1.2-1.6,0.7-4.1-1.1-5.1
		c-5.7-2.9-13.1-2.4-17.7-7.3C990.6,403.8,991.6,395.9,996.8,392.7z"/>
	<g>
		<path class="st0" d="M1096.8,391c2.4,0,4.9,0,7.4,0c0,12.8,0,25.7,0,38.5c-2.3,0-4.6,0-6.9,0c0-1.2,0.1-2.5,0.1-3.7
			c-3.4,4.3-10,5.7-14.6,2.4c-5.7-3.8-6.5-11.6-5.2-17.8c0.8-5.2,5.5-9.6,10.9-9.5c3.2-0.3,6.1,1.4,8.4,3.5
			C1096.7,400,1096.8,395.5,1096.8,391z M1088.8,406.9c-2.6,1.1-4,3.8-4.1,6.5c-0.2,3.2-0.2,7.1,2.3,9.5c2.2,2.3,6.4,1.9,8.2-0.8
			c2.3-3.3,2-7.8,1-11.6C1095.3,407.6,1091.7,405.7,1088.8,406.9z"/>
	</g>
	<path class="st0" d="M1357.5,391c2.5,0,5.1,0,7.6,0c0,4.5,0,9.1,0,13.6c3.6-3.8,9.7-4.9,14.2-2.1c2.7,1.6,3.6,4.9,3.7,7.9
		c0.1,6.4,0,12.8,0,19.1c-2.5,0-5,0-7.5,0c-0.2-6.7,0.4-13.4-0.4-20c-0.6-3.1-4.8-3.6-7.1-2.2c-2.5,1.4-2.8,4.6-2.9,7.2
		c-0.1,5,0,10,0,15c-2.6,0-5.1,0-7.6,0C1357.5,416.6,1357.5,403.8,1357.5,391z"/>
	<path class="st0" d="M467.6,391c2.6,0,5.3,0,7.9,0c0,7.8,0,15.7,0,23.5c0,2.6,0.2,5.7,2.5,7.4c3.7,2.7,11.2,2.1,12.1-3.2
		c0.8-9.2,0.2-18.4,0.4-27.7c2.6,0,5.2,0,7.8,0c0,8.2,0,16.4,0,24.6c-0.1,3.9-0.6,8.3-3.7,11.1c-4.4,3.9-10.7,3.7-16.1,3.1
		c-5.2-0.6-10-4.9-10.3-10.3C467.2,410,467.9,400.5,467.6,391z"/>
	<path class="st0" d="M678.6,395.9c2.5-1.5,5-3,7.5-4.5c0,3.4,0,6.7,0,10.1c1.7,0,3.3,0,5,0c0,1.8,0,3.6,0,5.5c-1.7,0-3.3,0-5,0
		c0.2,5.5-0.3,11,0.3,16.5c1.2,1.4,3.2,0.5,4.7,0.4c0.1,1.8,0.5,3.5,0.3,5.3c-3.4,0.9-7.4,1.5-10.5-0.5c-2-1.4-2.2-3.9-2.3-6.1
		c-0.1-5.2,0-10.4,0-15.5c-1.1,0-2.3-0.1-3.4-0.1c0-1.8,0-3.6,0-5.4c0.8,0,2.5,0,3.4,0C678.5,399.6,678.5,397.7,678.6,395.9z"/>
	<g>
		<path class="st0" d="M805.8,429.5c0-12.8,0-25.7,0-38.5c7.2,0.2,14.5-0.5,21.6,0.5c9.7,2.3,10.6,17.9,1.9,22
			c-4.9,2.2-10.4,1.2-15.6,1.4c0,4.8,0,9.7,0,14.5C811,429.5,808.4,429.5,805.8,429.5z M813.6,397.5c0,3.7,0,7.4,0,11
			c3.4-0.1,6.9,0.2,10.2-0.7c4.2-1.4,4.2-8.2,0-9.6C820.6,397.2,817.1,397.7,813.6,397.5z"/>
	</g>
	<g>
		<path class="st0" d="M1206.3,391c7,0.1,14-0.2,21,0.2c4.8,0.2,9.3,4.4,9.3,9.4c0.3,3.6-1.9,6.9-4.9,8.7c2.5,1.1,5.1,2.7,6.1,5.5
			c2.6,6.1-1.8,14.1-8.6,14.6c-7.6,0.6-15.3,0.1-22.9,0.3C1206.3,416.7,1206.3,403.8,1206.3,391z M1214.1,397.5c0,3,0,6,0,9
			c3.9-0.2,8,0.2,11.9-0.5c3.7-0.9,3.9-6.9,0.3-8C1222.3,397.3,1218.2,397.7,1214.1,397.5z M1214.1,413c0,3.3,0,6.7,0,10
			c4.4-0.1,8.8,0.2,13.1-0.5c4.1-1.1,4-7.7,0-8.8C1223,412.7,1218.5,413.1,1214.1,413z"/>
	</g>
	<path class="st0" d="M895.1,396.2c2.1-2.1,5-3.2,7.4-4.8c0,3.4,0,6.7,0,10.1c1.7,0,3.3,0,5,0c0,1.8,0,3.7,0,5.5c-1.7,0-3.3,0-5,0
		c0.1,5.4-0.3,10.9,0.2,16.3c1,1.9,3.2,0.8,4.8,0.6c0.1,1.8,0.3,3.7,0.4,5.5c-4.1,0.7-10.4,1.8-12.3-3c-1.3-6.4-0.3-12.9-0.6-19.4
		c-0.8,0-2.5,0-3.4,0c0-0.9,0-2.6,0-3.4c-0.6,2-1.3,4-1.9,6c-2.5-1.4-6.5-1.6-7.4,1.7c-1.6,5.9-0.7,12.1-0.9,18.2
		c-2.6,0-5.1,0-7.7,0c0.1-9.3,0-18.6,0-27.9c2.3,0,4.7,0,7,0c0,0.9-0.1,2.7-0.1,3.6c1.4-1.6,2.5-3.6,4.8-4c1.9-0.4,3.8,0.2,5.6,0.7
		c1.3-0.1,2.6-0.3,4-0.4C895,399.7,894.9,397.9,895.1,396.2z"/>
	<path class="st0" d="M1028.6,395.9c2.5-1.5,5-3,7.5-4.5c0,3.4,0,6.7,0,10.1c1.7,0,3.4,0,5.1,0.1c0,1.8,0,3.6,0,5.5
		c-1.7,0-3.3,0-5,0c0.2,5.5-0.3,11,0.3,16.5c1.2,1.5,3.1,0.5,4.7,0.4c0.2,1.8,0.3,3.6,0.5,5.4c-4.3,1.1-11.4,1.9-12.7-3.7
		c-0.8-6.1-0.2-12.4-0.4-18.5c-1.1,0-2.3,0-3.4-0.1c0-1.8,0-3.6,0-5.5c0.8,0,2.5,0,3.4,0C1028.5,399.6,1028.5,397.7,1028.6,395.9z"
		/>
	<path class="st0" d="M1174,396c2.5-1.6,5-3.1,7.6-4.7c0,3.4,0,6.7,0,10.1c1.7,0,3.3,0,5,0c0,1.8,0,3.7,0,5.5c-1.7,0-3.3,0-5,0
		c0.1,5.4-0.3,10.8,0.2,16.2c0.8,2,3.2,0.9,4.7,0.7c0.2,1.8,0.4,3.6,0.5,5.5c-4.1,0.8-10.4,1.9-12.4-2.9c-1.3-6.4-0.3-13-0.6-19.4
		c-0.8,0-2.5,0-3.4,0c0-1.8,0-3.7,0-5.5c0.9,0,2.6,0,3.4,0C1174,399.6,1174,397.8,1174,396z"/>
	<path class="st0" d="M506.1,401.5c2.3,0,4.6,0,6.9,0c0,0.9-0.1,2.8-0.1,3.7c2.5-2.5,5.7-4.6,9.4-4.3c4.3-0.3,8.9,2.9,9.1,7.5
		c0.3,7,0,14.1,0.1,21.1c-2.5,0-5,0-7.5,0c-0.1-6,0.2-12-0.1-18c0-2.1-1.1-4.5-3.4-4.8c-3.1-0.7-6.4,1.8-6.6,4.9
		c-0.5,5.9-0.1,11.9-0.2,17.9c-2.5,0-5,0-7.5,0C506.1,420.2,506.1,410.8,506.1,401.5z"/>
	<path class="st0" d="M538.6,401.5c2.5,0,5,0,7.5,0c0,9.3,0,18.6,0,28c-2.5,0-5,0-7.5,0C538.6,420.1,538.7,410.8,538.6,401.5z"/>
	<path class="st0" d="M550.1,401.5c2.6,0,5.3,0,7.9,0c2.2,6.2,4.7,12.4,6.6,18.7c2-6.3,4.5-12.5,6.7-18.8c2.6,0,5.2,0,7.7,0
		c-3.7,9.3-7.4,18.6-11,28c-2.3,0-4.6,0-6.8,0C557.5,420.2,553.8,410.8,550.1,401.5z"/>
	<g>
		<path class="st0" d="M583.3,406.5c4.3-7.2,16-7.5,20.9-0.8c2.5,3.4,2.8,7.7,2.9,11.8c-6.2,0.1-12.4-0.1-18.6,0.1
			c0.4,3.2,2.2,6.9,5.9,6.9c2.6,0.4,4-2,5-3.9c2.5,0.3,4.9,0.6,7.4,1c-1.4,3.2-3.4,6.4-6.9,7.7c-5.9,2.1-14,0.9-17.1-5.2
			C580.2,418.5,580.3,411.7,583.3,406.5z M588.6,413c3.8,0,7.5,0,11.3,0c-0.3-3-2-6.4-5.4-6.4C590.9,406.2,588.9,409.8,588.6,413z"
			/>
	</g>
	<path class="st0" d="M612.7,401.5c2.3,0,4.7,0,7.1,0c0,0.9-0.1,2.7-0.1,3.6c1.4-1.5,2.5-3.6,4.7-4c2.3-0.6,4.5,0.4,6.6,1.3
		c-0.8,2.4-1.5,4.8-2.3,7.2c-2.5-1.3-6.4-1.6-7.4,1.7c-1.7,5.9-0.7,12.1-0.9,18.2c-2.5,0-5.1,0-7.6,0
		C612.8,420.2,612.8,410.8,612.7,401.5z"/>
	<path class="st0" d="M634.7,403.6c3.7-3.2,9.1-2.9,13.6-2.3c4.1,0.5,6.9,3.9,8,7.7c-2.3,0.4-4.6,0.7-7,1c-1.5-3.8-6.1-4.1-9.3-2.8
		c-1.2,0.3-1.5,2.1-0.4,2.7c4.8,2.3,10.7,2,15,5.2c3.5,2.8,3.1,8.6-0.1,11.5c-3.9,3.9-10.1,3.8-15.2,2.8c-4.3-0.9-7.2-4.5-8.6-8.5
		c2.5-0.4,5.1-0.7,7.6-1c1.1,4.6,7,5.8,10.5,3.2c1.2-0.8,0.9-3-0.5-3.3c-4.3-1.4-9.1-1.8-13.1-4.1
		C631.1,413.2,631,406.6,634.7,403.6z"/>
	<path class="st0" d="M663.6,401.5c2.5,0,5,0,7.5,0c0,9.3,0,18.7,0,28c-2.5,0-5,0-7.5,0C663.6,420.1,663.6,410.8,663.6,401.5z"/>
	<path class="st0" d="M692.7,401.5c2.7,0,5.3,0,8,0c2.2,6.5,4.3,13,6.5,19.5c2.2-6.5,4.3-13,6.4-19.5c2.6,0,5.2,0,7.8,0
		c-3.7,10.3-7.4,20.5-11.1,30.8c-1,2.7-2.2,5.7-5,7.1c-3.1,1.6-6.7,1.2-10.1,0.9c-0.2-1.8-0.5-3.7-0.7-5.5c2.2,0,4.7,0.7,6.5-0.9
		c1.2-1.2,1.6-2.8,2.4-4.2C699.7,420.3,696.2,410.9,692.7,401.5z"/>
	<g>
		<path class="st0" d="M748.5,401.6c5.9-1.8,13.2-0.2,16.7,5.2c4.6,6.6,2.9,17.1-4.3,21.3c-5.2,3-12.2,2.5-16.9-1
			C735.7,420.4,737.9,404.6,748.5,401.6z M750.9,407.1c-4.5,2.3-4.9,8.3-3.6,12.6c1,3.6,5.3,5.9,8.7,4.1c4.3-2.3,4.6-8.1,3.5-12.3
			C758.6,407.9,754.4,405.4,750.9,407.1z"/>
	</g>
	<g>
		<path class="st0" d="M849.6,401.6c4.8-1.3,10.4-0.8,14.2,2.6c6.5,5.4,6.6,16.5,0.4,22.2c-5.1,4.9-13.7,4.8-19.2,0.8
			C836.7,420.5,838.9,404.4,849.6,401.6z M851.9,407.1c-6,3.3-5.9,14.3,0.5,17c5.2,1.8,9.2-3.9,8.7-8.6
			C861.8,410.5,857.1,404.6,851.9,407.1z"/>
	</g>
	<g>
		<path class="st0" d="M920.5,401.6c4.8-1.3,10.4-0.8,14.2,2.5c6.5,5.4,6.7,16.6,0.5,22.2c-5.1,4.9-13.7,4.8-19.3,0.7
			C907.7,420.4,909.9,404.5,920.5,401.6z M922.9,407.1c-6,3.3-5.9,14.2,0.5,17c5.2,1.9,9.3-3.8,8.7-8.6
			C932.8,410.6,928.2,404.7,922.9,407.1z"/>
	</g>
	<path class="st0" d="M1046,401.5c2.5,0,5,0,7.5,0c0.2,6.6-0.4,13.4,0.4,20c1.2,4.6,8.4,3.4,9.4-0.8c0.9-6.3,0.4-12.8,0.6-19.1
		c2.5,0,5,0,7.5,0c0,9.3,0,18.7,0,28c-2.3,0-4.6,0-6.9,0c0-1.3,0-2.5,0.1-3.8c-2.5,2.9-6.2,4.8-10.1,4.3c-4.2,0-8.1-3.3-8.2-7.5
		C1045.8,415.5,1046.1,408.5,1046,401.5z"/>
	<g>
		<path class="st0" d="M1111.3,406.5c4.3-7.2,16.1-7.4,20.9-0.7c2.4,3.4,2.8,7.7,2.8,11.7c-6.2,0.1-12.4-0.1-18.6,0.1
			c0.4,3.1,2.2,6.9,5.9,6.8c2.6,0.4,4.1-1.9,5.1-3.9c2.4,0.3,4.9,0.6,7.4,1c-1.3,3.2-3.4,6.4-6.8,7.7c-5.7,2-13.5,1-16.8-4.6
			C1108.1,419,1108.2,411.9,1111.3,406.5z M1116.6,413c3.8,0,7.5,0,11.3,0c-0.3-3-2-6.4-5.4-6.4
			C1118.9,406.3,1116.9,409.9,1116.6,413z"/>
	</g>
	<path class="st0" d="M1141.1,401.5c2.3,0,4.6,0,6.9,0c-0.1,1.2-0.1,2.5-0.1,3.7c4.4-5.8,15.9-6.2,18.1,1.7
		c0.9,7.5,0.2,15.1,0.4,22.6c-2.5,0-5,0-7.5,0c-0.2-6.5,0.3-13-0.3-19.5c-0.4-3.5-4.8-4.4-7.3-2.6c-2.1,1.2-2.7,3.8-2.7,6
		c-0.2,5.4,0,10.7-0.1,16c-2.5,0-5,0-7.5,0C1141.1,420.1,1141.1,410.8,1141.1,401.5z"/>
	<path class="st0" d="M1244.3,401.5c2.3,0,4.6,0,7,0c0,0.8,0,2.4,0,3.2c2.3-4,7.4-4.8,11.2-2.3c-0.8,2.4-1.6,4.8-2.3,7.2
		c-2.4-1.2-6.1-1.8-7.2,1.3c-1.9,6-0.9,12.4-1.1,18.5c-2.6,0-5.1,0.1-7.7,0.1C1244.3,420.2,1244.3,410.8,1244.3,401.5z"/>
	<g>
		<path class="st0" d="M1264.3,409c1.2-3.7,3.9-7.3,8.1-7.7c5.1-0.6,12.2-1.1,15.1,4.1c2.2,7.8-1,16.4,2.3,24.1c-2.5,0-4.9,0-7.4,0
			c-0.2-0.8-0.6-2.2-0.8-3c-3.8,3.5-9.8,4.9-14.4,2.1c-4.8-3-4.8-11.2,0.4-13.9c4.2-2.1,9.1-2.2,13.6-3.8c0.3-5.8-8.7-5.8-10.2-0.9
			C1268.7,409.7,1266.5,409.3,1264.3,409z M1271.2,420.5c-0.2,4.1,5.2,4.9,7.7,2.7c2.3-1.3,1.8-4.4,2.2-6.6
			C1277.9,417.8,1273.1,417,1271.2,420.5z"/>
	</g>
	<path class="st0" d="M1295.1,401.5c2.3,0,4.6,0,6.9,0c0,0.9-0.1,2.8-0.1,3.7c2.5-2.5,5.8-4.6,9.5-4.2c4.3-0.2,8.8,2.9,8.9,7.4
		c0.3,7,0,14.1,0.1,21.1c-2.5,0-5,0-7.5,0c-0.2-6.7,0.5-13.4-0.4-20c-1.4-4.8-9-3.2-9.6,1.4c-0.8,6.2-0.2,12.4-0.4,18.6
		c-2.5,0-5,0-7.5,0C1295.1,420.2,1295.1,410.8,1295.1,401.5z"/>
	<path class="st0" d="M1327.2,408.6c3.5-9.7,20-10.6,23.9-0.8c0.2,0.6,0.8,1.7,1,2.2c-2.4,0.4-4.9,0.7-7.3,1.1c-0.7-4.2-6-6-9-3.1
		c-2.8,3.2-2.3,7.9-1.6,11.8c0.5,3.4,4.5,5.8,7.7,4.2c2.1-0.8,2.4-3.2,3.3-5c2.4,0.3,4.9,0.7,7.3,1c-1.1,3.4-2.7,7.1-6.2,8.7
		c-5.8,2.6-13.8,1.9-17.6-3.6C1325.5,420.3,1325.3,413.9,1327.2,408.6z"/>
	<path class="st0" d="M959.4,413c4.8,0,9.7,0,14.5,0c0,2.2,0,4.3,0,6.5c-4.8,0-9.7,0-14.5,0C959.4,417.3,959.4,415.1,959.4,413z"/>
</g>
</svg>
