<?xml version="1.0" encoding="utf-8"?>
<!-- Generator: Adobe Illustrator 16.0.0, SVG Export Plug-In . SVG Version: 6.00 Build 0)  -->
<!DOCTYPE svg PUBLIC "-//W3C//DTD SVG 1.1//EN" "http://www.w3.org/Graphics/SVG/1.1/DTD/svg11.dtd">
<svg version="1.1" id="Layer_1" xmlns="http://www.w3.org/2000/svg" xmlns:xlink="http://www.w3.org/1999/xlink" x="0px" y="0px"
	 width="500px" height="500px" viewBox="0 0 500 500" enable-background="new 0 0 500 500" xml:space="preserve">
<path fill="#FFFFFF" d="M136.932,41.033c-7.359-4.541-17.626-9.084-27.256-9.084c-40.158,0-72.683,32.8-72.683,73.323
	c0,58.593,62.418,79.498,99.939,108.385v13.629c0,54.966,38.977,100.755,90.855,111.297v65.868c0,9.992-8.177,18.172-18.17,18.172
	h-49.972c-12.536,0-22.713,10.175-22.713,22.716c0,12.536,10.177,22.711,22.713,22.711h181.708
	c12.541,0,22.717-10.175,22.717-22.711c0-12.541-10.176-22.716-22.717-22.716h-49.97c-9.987,0-18.169-8.18-18.169-18.172v-65.868
	c51.877-10.542,90.854-56.331,90.854-111.297v-13.629c37.521-28.888,99.938-49.792,99.938-108.385
	c0-40.523-32.526-73.323-72.685-73.323c-9.633,0-19.894,4.543-27.254,9.084H136.932z M218.701,104.632v109.025
	c0,9.991-8.175,18.172-18.17,18.172c-9.995,0-18.172-8.181-18.172-18.172V104.632c0-9.99,8.177-18.171,18.172-18.171
	C210.526,86.461,218.701,94.643,218.701,104.632z M82.418,105.272c0-15.173,12.173-27.534,27.257-27.534
	c15.079,0,27.256,12.361,27.256,27.534v55.879C110.766,144.612,82.418,133.609,82.418,105.272z M418.581,105.272
	c0,28.337-28.348,39.339-54.512,55.879v-55.879c0-15.173,12.172-27.534,27.254-27.534C406.408,77.739,418.581,90.1,418.581,105.272z
	"/>
</svg>
